<?xml version="1.0" encoding="UTF-8"?>
<svg xmlns="http://www.w3.org/2000/svg" xmlns:xlink="http://www.w3.org/1999/xlink" width="20px" height="21px" viewBox="0 0 20 20" version="1.1">
<g id="surface1">
<path style=" stroke:none;fill-rule:nonzero;fill:rgb(0%,0%,0%);fill-opacity:1;" d="M 18.816406 0.015625 C 18.761719 0.0234375 18.613281 0.0351562 18.480469 0.046875 C 17.625 0.109375 17.152344 0.226562 16.578125 0.5 C 16.230469 0.667969 15.765625 0.953125 15.347656 1.257812 C 15.054688 1.46875 14.933594 1.585938 14.863281 1.726562 C 14.789062 1.875 14.648438 2.058594 14.328125 2.429688 C 13.082031 3.859375 10.910156 6.664062 8.671875 9.726562 C 8.261719 10.289062 7.820312 10.941406 7.582031 11.335938 C 7.402344 11.636719 7.347656 11.71875 7.15625 11.964844 C 7.007812 12.15625 6.617188 12.71875 6.175781 13.382812 C 5.863281 13.855469 5.707031 14.070312 5.5 14.335938 C 5.324219 14.5625 5.117188 14.789062 5.085938 14.792969 C 5.066406 14.796875 5.027344 14.753906 4.96875 14.667969 C 4.855469 14.5 4.824219 14.441406 4.621094 13.984375 C 4.246094 13.136719 3.835938 12.304688 3.675781 12.078125 C 3.460938 11.761719 3.230469 11.65625 2.757812 11.65625 C 2.308594 11.65625 1.933594 11.75 1.429688 11.992188 C 1.035156 12.179688 0.699219 12.40625 0.4375 12.65625 C 0.0585938 13.023438 -0.046875 13.324219 0.0390625 13.8125 C 0.121094 14.300781 0.316406 14.988281 0.746094 16.351562 C 1.257812 17.960938 1.507812 18.554688 1.957031 19.257812 C 2.210938 19.652344 2.226562 19.671875 2.292969 19.71875 C 2.433594 19.8125 3.070312 19.9375 3.699219 19.984375 C 3.910156 20.003906 3.984375 20 4.242188 19.976562 C 4.917969 19.917969 5.324219 19.824219 5.601562 19.671875 C 5.792969 19.566406 6.15625 19.09375 7.296875 17.46875 C 7.824219 16.71875 8.082031 16.363281 8.21875 16.203125 C 8.355469 16.039062 8.394531 15.980469 8.574219 15.679688 C 8.851562 15.214844 9.21875 14.6875 10.140625 13.421875 C 12.0625 10.78125 14.371094 7.753906 14.855469 7.234375 C 15.007812 7.070312 15.136719 6.90625 15.441406 6.484375 C 15.765625 6.035156 15.96875 5.78125 16.117188 5.625 C 16.347656 5.386719 16.65625 5.019531 17.3125 4.210938 C 17.960938 3.40625 18.210938 3.109375 18.5625 2.71875 C 18.996094 2.242188 19.507812 1.554688 19.777344 1.085938 C 19.878906 0.914062 19.992188 0.617188 19.992188 0.53125 C 19.992188 0.453125 19.925781 0.300781 19.863281 0.226562 C 19.769531 0.128906 19.636719 0.0703125 19.40625 0.03125 C 19.210938 0 18.996094 -0.0078125 18.816406 0.015625 Z M 18.816406 0.015625 "/>
</g>
</svg>
